<?xml version="1.0" standalone="no"?>
<!DOCTYPE svg PUBLIC "-//W3C//DTD SVG 20010904//EN"
 "http://www.w3.org/TR/2001/REC-SVG-20010904/DTD/svg10.dtd">
<svg version="1.0" xmlns="http://www.w3.org/2000/svg"
 width="200.000000pt" height="200.000000pt" viewBox="0 0 200.000000 200.000000"
 preserveAspectRatio="xMidYMid meet">

<g transform="translate(0.000000,200.000000) scale(0.100000,-0.100000)"
fill="#000000" stroke="none">
<path d="M1208 823 c-26 -4 -41 -23 -18 -23 6 0 10 -13 10 -30 0 -25 -4 -30
-23 -30 -26 0 -61 -33 -71 -66 -15 -51 43 -104 81 -73 13 11 17 11 20 2 6 -18
38 -16 53 2 10 12 9 15 -5 15 -16 0 -17 10 -13 105 2 58 1 104 -2 104 -3 -1
-17 -4 -32 -6z m-8 -159 c0 -41 -2 -45 -22 -42 -40 5 -38 88 2 88 17 0 20 -6
20 -46z"/>
<path d="M1327 814 c-15 -15 -7 -45 11 -42 9 2 17 12 17 22 0 20 -16 31 -28
20z"/>
<path d="M458 729 c-28 -16 -21 -27 15 -25 44 2 42 -23 -3 -38 -27 -8 -35 -16
-35 -35 0 -31 28 -50 52 -35 13 8 23 8 35 0 14 -8 22 -7 35 7 16 16 16 17 -1
17 -16 0 -18 5 -12 40 8 52 -6 80 -42 80 -15 0 -35 -5 -44 -11z m49 -94 c-4
-8 -13 -15 -22 -15 -21 0 -19 28 3 32 22 5 26 2 19 -17z"/>
<path d="M620 729 c-11 -8 -12 -12 -2 -16 15 -6 17 -103 2 -103 -5 0 -10 -4
-10 -10 0 -5 18 -10 39 -10 22 0 43 5 46 10 3 6 -1 10 -9 10 -12 0 -16 10 -16
39 0 42 16 63 31 40 10 -16 14 -12 23 24 7 31 -12 37 -38 11 -15 -14 -16 -14
-16 0 0 18 -28 21 -50 5z"/>
<path d="M793 725 c-39 -27 -38 -101 1 -127 17 -12 61 -9 74 4 19 19 15 23
-20 23 -32 0 -33 2 -36 43 -3 36 0 42 16 42 11 0 23 -7 26 -16 8 -22 26 -7 26
22 0 21 -5 24 -33 24 -18 0 -42 -7 -54 -15z"/>
<path d="M953 730 c-36 -14 -27 -29 12 -23 30 5 35 3 35 -15 0 -15 -9 -21 -34
-26 -38 -7 -51 -28 -36 -57 12 -21 32 -24 61 -9 13 7 19 7 19 0 0 -15 36 -12
50 5 10 12 10 15 -4 15 -12 0 -16 10 -16 48 0 68 -26 86 -87 62z m43 -107 c-3
-3 -13 -2 -23 1 -17 7 -17 8 2 22 18 13 20 13 23 -1 2 -9 1 -19 -2 -22z"/>
<path d="M1318 733 c-19 -5 -25 -23 -8 -23 14 0 12 -94 -2 -108 -9 -9 -3 -12
30 -12 23 0 42 5 42 10 0 6 -5 10 -11 10 -8 0 -10 21 -7 65 4 68 3 70 -44 58z"/>
<path d="M1448 729 c-28 -16 -21 -27 14 -25 48 2 51 -29 3 -38 -41 -8 -52 -25
-35 -55 12 -24 39 -27 59 -8 11 10 14 10 18 0 3 -7 13 -13 23 -13 22 0 39 22
22 28 -7 2 -12 24 -12 51 0 26 -5 52 -12 59 -15 15 -57 15 -80 1z m52 -90 c0
-14 -5 -19 -17 -17 -23 4 -28 25 -6 31 10 3 19 5 21 6 1 0 2 -8 2 -20z"/>
</g>
</svg>
